<svg width="270" height="264" viewBox="0 0 270 264" fill="none" xmlns="http://www.w3.org/2000/svg">
<path d="M135 0C99.2083 0.0398478 64.8942 13.9597 39.5856 38.7058C14.277 63.452 0.0407535 97.0035 0 132C0 167.267 14.0505 200.409 39.553 225.325C52.0553 237.625 66.9291 247.376 83.313 254.014C99.6969 260.653 117.265 264.047 135 264C170.792 263.96 205.106 250.04 230.414 225.294C255.723 200.548 269.959 166.996 270 132C269.959 97.0035 255.723 63.452 230.414 38.7058C205.106 13.9597 170.792 0.0398478 135 0ZM135 18.8195C165.689 18.8543 195.11 30.7898 216.81 52.0077C238.51 73.2256 250.717 101.993 250.753 132C250.727 160.457 239.683 187.85 219.842 208.67C206.744 193.51 189.69 182.102 170.492 175.661C177.157 170.376 182.533 163.705 186.228 156.132C189.924 148.56 191.847 140.277 191.856 131.887C191.834 124.467 190.314 117.125 187.384 110.281C184.455 103.436 180.173 97.2244 174.784 92.0007C169.395 86.7771 163.005 82.6443 155.98 79.8393C148.955 77.0343 141.433 75.6121 133.845 75.6543C126.26 75.6764 118.754 77.1611 111.757 80.0231C104.759 82.8852 98.408 87.0685 93.0661 92.3336C87.7243 97.5987 83.4968 103.842 80.6258 110.707C77.7547 117.571 76.2965 124.922 76.3345 132.339C76.3345 149.822 84.7263 165.273 97.5834 175.586C78.7759 181.853 62.0012 192.879 48.9649 207.541C29.7953 186.851 19.1999 159.918 19.2472 132C19.2829 101.993 31.4897 73.2256 53.1898 52.0077C74.8899 30.7898 104.311 18.8543 135 18.8195ZM134.326 94.4737C155.441 94.4737 172.59 111.261 172.59 132.339C172.565 142.033 168.693 151.34 161.788 158.298C154.884 165.256 145.487 169.322 135.577 169.639C135.019 169.639 134.48 169.526 133.922 169.526C133.441 169.526 132.979 169.62 132.498 169.639C122.541 169.258 113.127 165.106 106.245 158.061C99.3627 151.015 95.5526 141.629 95.6202 131.887C95.6202 111.261 112.769 94.4737 134.326 94.4737ZM132.479 188.421C132.941 188.439 133.402 188.571 133.864 188.571H134.326C134.75 188.571 135.096 188.439 135.52 188.421C148.947 188.65 162.165 191.715 174.268 197.406C186.37 203.097 197.071 211.279 205.637 221.392C185.464 236.802 160.6 245.176 135 245.18C108.82 245.232 83.4076 236.533 62.9769 220.527C71.5651 210.656 82.2055 202.687 94.1895 197.151C106.174 191.615 119.226 188.639 132.479 188.421Z" fill="url(#paint0_linear_64_103)"/>
<defs>
<linearGradient id="paint0_linear_64_103" x1="0" y1="132" x2="231.236" y2="132" gradientUnits="userSpaceOnUse">
<stop stop-color="#F07E7F"/>
<stop offset="1" stop-color="#B4499D"/>
</linearGradient>
</defs>
</svg>
