<svg width="48" height="48" viewBox="0 0 48 48" fill="none" xmlns="http://www.w3.org/2000/svg">
<path d="M24 0C17.637 0.00724505 11.5367 2.53813 7.03744 7.03743C2.53814 11.5367 0.00724507 17.637 0 24C0 30.4123 2.49786 36.4379 7.03165 40.9683C9.25427 43.2045 11.8985 44.9774 14.8112 46.1844C17.7239 47.3915 20.8471 48.0085 24 47.9999C30.363 47.9927 36.4633 45.4618 40.9626 40.9625C45.4619 36.4632 47.9928 30.3629 48 24C47.9928 17.637 45.4619 11.5367 40.9626 7.03743C36.4633 2.53813 30.363 0.00724505 24 0ZM24 3.42172C29.4558 3.42806 34.6862 5.59815 38.544 9.45595C42.4018 13.3137 44.5719 18.5442 44.5783 24C44.5736 29.1741 42.6103 34.1546 39.083 37.9401C36.7545 35.1836 33.7226 33.1095 30.3097 31.9383C31.4945 30.9775 32.4503 29.7645 33.1073 28.3877C33.7643 27.0109 34.1061 25.5049 34.1078 23.9794C34.1038 22.6304 33.8336 21.2955 33.3128 20.051C32.792 18.8066 32.0308 17.6772 31.0728 16.7274C30.1147 15.7776 28.9787 15.0262 27.7298 14.5162C26.4809 14.0062 25.1437 13.7477 23.7947 13.7553C22.4463 13.7594 21.1119 14.0293 19.8679 14.5497C18.6239 15.07 17.4948 15.8306 16.5451 16.7879C15.5954 17.7452 14.8439 18.8804 14.3335 20.1285C13.8231 21.3766 13.5638 22.7131 13.5706 24.0615C13.5706 27.2403 15.0624 30.0496 17.3482 31.9247C14.0046 33.0642 11.0224 35.0689 8.70488 37.7347C5.29694 33.9729 3.41332 29.0759 3.42173 24C3.42807 18.5442 5.59816 13.3137 9.45597 9.45595C13.3138 5.59815 18.5442 3.42806 24 3.42172ZM23.8802 17.177C27.6339 17.177 30.6826 20.2292 30.6826 24.0615C30.6783 25.8242 29.9898 27.5164 28.7624 28.7815C27.535 30.0465 25.8644 30.7858 24.1027 30.8434C24.0034 30.8434 23.9076 30.8229 23.8084 30.8229C23.7228 30.8229 23.6407 30.84 23.5552 30.8434C21.7852 30.7741 20.1115 30.0192 18.888 28.7383C17.6645 27.4573 16.9871 25.7508 16.9991 23.9794C16.9991 20.2292 20.0479 17.177 23.8802 17.177ZM23.5518 34.2583C23.6339 34.2617 23.716 34.2857 23.7981 34.2857H23.8802C23.9555 34.2857 24.0171 34.2617 24.0924 34.2583C26.4795 34.3 28.8293 34.8573 30.9809 35.892C33.1325 36.9268 35.0349 38.4144 36.5577 40.2531C32.9713 43.055 28.5511 44.5774 24 44.5782C19.3457 44.5876 14.828 43.0061 11.1959 40.0957C12.7227 38.301 14.6143 36.8521 16.7448 35.8456C18.8753 34.839 21.1958 34.2979 23.5518 34.2583Z" fill="white"/>
</svg>
